<svg width="80" height="40" viewBox="0 0 80 40" fill="none" xmlns="http://www.w3.org/2000/svg">
<path d="M44.2897 28.1037C44.1958 28.1037 44.1159 28.0659 44.0502 28.0045C43.9845 27.9384 43.9516 27.8581 43.9516 27.759C43.9516 27.6645 43.9845 27.5842 44.0502 27.5181C44.1159 27.452 44.1958 27.4189 44.2897 27.4189H48.6989C48.8022 27.4189 48.8914 27.4567 48.9713 27.5323C49.0511 27.6126 49.0887 27.7023 49.084 27.8062C49.0464 29.2135 48.6989 30.2855 48.0274 31.0364C47.3606 31.7826 46.3511 32.2501 44.9987 32.439C44.9048 32.4532 44.8156 32.4296 44.7405 32.3729C44.6653 32.3162 44.6184 32.2407 44.5996 32.1462C44.5808 32.0612 44.5996 31.9762 44.6559 31.9006C44.7123 31.8251 44.7874 31.7826 44.8766 31.7684C45.9942 31.6078 46.83 31.2442 47.3794 30.6728C47.9288 30.1061 48.2387 29.2655 48.3139 28.1557C48.3139 28.1179 48.2951 28.1037 48.2575 28.1037H44.2897Z" fill="white"/>
<path d="M52.6714 32.2738C52.5869 32.2738 52.5165 32.2454 52.4554 32.1935C52.3944 32.1368 52.3662 32.066 52.3662 31.9762C52.3662 31.8912 52.3944 31.8204 52.4554 31.759C52.5118 31.6976 52.5869 31.6693 52.6714 31.6693H55.0944C55.1367 31.6693 55.1554 31.6504 55.1554 31.6126L55.3339 29.1096C55.3339 29.0719 55.3151 29.0577 55.2822 29.0577H53.2396C53.1551 29.0577 53.08 29.0246 53.0236 28.968C52.9626 28.9113 52.9344 28.8357 52.9344 28.746C52.9344 28.661 52.9626 28.5902 53.0236 28.5335C53.08 28.4768 53.1551 28.4485 53.2396 28.4485H55.7283C55.8316 28.4485 55.9208 28.4863 55.9913 28.5618C56.0617 28.6374 56.0946 28.7271 56.0899 28.8357L55.9114 31.6173C55.9114 31.6551 55.9302 31.674 55.9678 31.674H56.6627C56.752 31.674 56.8224 31.7023 56.8787 31.7637C56.9398 31.8251 56.968 31.8959 56.968 31.981C56.968 32.0707 56.9398 32.1415 56.8787 32.1982C56.8224 32.2549 56.7473 32.2785 56.6627 32.2785H52.6714V32.2738Z" fill="white"/>
<path d="M60.3911 30.1676C60.2925 30.1676 60.208 30.1345 60.1422 30.0637C60.0718 30.0023 60.0436 29.9126 60.0436 29.8134C60.0436 29.7095 60.0765 29.6245 60.1422 29.5584C60.208 29.4923 60.2925 29.4592 60.3911 29.4592H65.2652C65.3638 29.4592 65.4483 29.4923 65.5141 29.5584C65.5845 29.6292 65.6174 29.7095 65.6174 29.8134C65.6174 29.9126 65.5845 29.9976 65.5141 30.0637C65.4437 30.1345 65.3638 30.1676 65.2652 30.1676H60.3911Z" fill="white"/>
<path d="M69.7261 32.5761C69.6557 32.6469 69.5664 32.68 69.4631 32.68C69.3598 32.68 69.2706 32.6422 69.2002 32.5761C69.1251 32.5005 69.0875 32.4108 69.0875 32.3069V27.4474C69.0875 27.3435 69.1251 27.2538 69.2002 27.1829C69.2706 27.1121 69.3598 27.0743 69.4631 27.0743C69.5711 27.0743 69.6557 27.1121 69.7261 27.1829C69.8012 27.2585 69.8341 27.3482 69.8341 27.4474V28.9728C69.8341 29.0106 69.8529 29.0342 69.8811 29.0389C71.0174 29.3175 72.1397 29.6575 73.2572 30.0542C73.3465 30.0873 73.4169 30.1487 73.4592 30.2431C73.5014 30.3329 73.5108 30.4226 73.4779 30.5218C73.4451 30.6115 73.3887 30.6823 73.2995 30.7248C73.2103 30.7721 73.1211 30.7721 73.0319 30.739C71.9894 30.3612 70.9423 30.0401 69.8904 29.7756C69.8529 29.7662 69.8341 29.7803 69.8341 29.8181V32.3022C69.8388 32.4108 69.8012 32.5005 69.7261 32.5761ZM71.4917 27.3435C71.5762 27.2963 71.6654 27.2915 71.7546 27.3199C71.8392 27.3435 71.9096 27.4049 71.9612 27.4852C72.1678 27.8535 72.2805 28.0566 72.3087 28.1085C72.3557 28.1888 72.3604 28.2786 72.3275 28.3683C72.2946 28.458 72.2383 28.5194 72.1585 28.5619C72.0739 28.6044 71.9847 28.6091 71.8955 28.5761C71.811 28.543 71.7405 28.4864 71.6983 28.4061C71.6936 28.3966 71.6466 28.3116 71.5621 28.1511C71.4776 27.9905 71.4071 27.8771 71.3649 27.7969C71.3179 27.7166 71.3038 27.6363 71.332 27.5466C71.3555 27.4521 71.4072 27.386 71.4917 27.3435ZM72.3792 27.2632C72.4073 27.1735 72.4637 27.1074 72.5482 27.0601C72.6327 27.0129 72.7266 27.0035 72.8159 27.0318C72.9098 27.0601 72.9755 27.1215 73.0225 27.2065C73.2244 27.5702 73.3418 27.778 73.3699 27.8299C73.4122 27.9102 73.4263 27.9952 73.3981 28.0897C73.3699 28.1841 73.3136 28.2502 73.2291 28.288C73.1445 28.3305 73.0553 28.3352 72.9614 28.3116C72.8722 28.2833 72.8018 28.2266 72.7595 28.1416L72.412 27.523C72.3651 27.4379 72.3557 27.3529 72.3792 27.2632Z" fill="white"/>
<path d="M79.9486 0.854782C79.8453 0.524203 79.5917 0.264463 79.2442 0.118064C79.0611 0.0377804 78.8639 0 78.6573 0C78.1642 0 77.6853 0.226682 77.4082 0.585596C77.1688 0.897285 73.3183 5.95986 70.4915 13.0248C70.191 12.9823 69.8858 12.9634 69.5993 12.9634C68.834 12.9634 68.0873 13.0956 67.3736 13.3554C66.5425 13.6623 65.7677 14.1535 65.0727 14.8241L64.9272 14.9658C64.3872 15.4664 62.9597 15.3247 62.7155 13.8418C62.6169 13.2515 62.0581 12.8406 61.3444 12.8406C60.7105 12.8548 60.1376 13.2373 59.9545 13.7662C59.2266 15.8347 57.0619 20.0614 54.869 20.2456C54.7094 19.5655 55.456 16.9492 57.0103 14.1251C57.1887 13.804 57.2028 13.4309 57.0525 13.1145C56.9023 12.7934 56.6017 12.5478 56.2167 12.4439C56.0852 12.4109 55.9491 12.392 55.8082 12.392C55.2353 12.392 54.7047 12.6848 54.4558 13.1381L54.1929 13.6246C52.5118 16.9681 49.9057 20.2503 48.929 20.2503C48.8398 20.2503 48.7882 20.2456 48.76 20.2361C48.4313 19.6553 49.408 16.8784 51.1454 14.2007C51.352 13.8843 51.3943 13.5112 51.2581 13.1759C51.1266 12.8453 50.8543 12.595 50.4833 12.4723C50.3283 12.4203 50.164 12.392 49.9903 12.392C49.4596 12.392 48.9478 12.6564 48.6802 13.0626C48.6802 13.0626 47.1963 15.2302 45.7078 16.1464H45.7125C45.2335 16.4203 44.7358 16.7225 44.2193 17.0626C44.3602 16.7509 44.4635 16.5336 44.5057 16.4298C45.1068 15.4286 45.4918 14.673 45.5622 14.5313C45.7266 14.2102 45.7266 13.8465 45.5669 13.5301C45.4026 13.209 45.088 12.9728 44.7076 12.8831C44.5855 12.8548 44.4635 12.8359 44.3414 12.8359C43.7544 12.8359 43.205 13.1523 42.9655 13.6246C42.7073 14.1346 42.4208 14.6635 42.1109 15.1972C42.0546 15.2633 41.9841 15.3577 41.9325 15.4805L41.9184 15.5183C39.9744 18.7485 38.2558 20.2503 37.7064 20.2503C37.6172 20.2503 37.5702 20.2456 37.5374 20.2361C37.2087 19.6553 38.1807 16.8784 39.9228 14.196C40.1247 13.8796 40.1669 13.5065 40.0354 13.1712C39.904 12.8406 39.6316 12.5903 39.2607 12.4675C39.1057 12.4156 38.9367 12.3872 38.7629 12.3872C38.237 12.3872 37.7205 12.6517 37.4528 13.0579C37.2697 13.3412 37.1147 13.6009 36.988 13.8418C36.8753 13.9126 36.7767 13.9929 36.6921 14.0874C36.0817 14.7485 34.0203 15.1216 33.8043 13.8371C33.7104 13.2468 33.1469 12.8312 32.4332 12.8312C31.7993 12.8453 31.2264 13.2279 31.0433 13.7568C30.3201 15.8253 28.1507 20.0567 25.9578 20.2361C25.7982 19.5702 26.4932 17.039 28.1038 14.111C28.2822 13.7898 28.2963 13.4215 28.1413 13.1004C27.9911 12.7839 27.6905 12.5384 27.3102 12.4345C27.1787 12.4014 27.0425 12.3825 26.9017 12.3825C26.3288 12.3825 25.7982 12.6753 25.5493 13.1287L25.2817 13.6151C23.4926 17.1854 20.8912 20.2408 20.0178 20.2408C19.9286 20.2408 19.877 20.2314 19.8488 20.2267C19.5342 19.6647 20.4311 17.0626 22.0558 14.4699C22.2342 14.3282 22.3704 14.1393 22.4455 13.9126C22.5676 13.549 22.53 13.1476 22.3328 12.7839C22.0558 12.2597 21.5158 11.9197 20.9476 11.9197C20.7504 11.9197 20.5672 11.9622 20.3935 12.0425C18.4542 12.9398 16.529 13.464 14.6695 13.5962L14.261 13.6246L16.0359 8.40142C16.097 8.21724 17.5667 3.93388 20.154 3.93388C20.3324 3.93388 20.5156 3.95277 20.6987 3.99528C21.4124 4.16057 22.2811 4.75561 22.3563 6.65407C22.3563 6.66824 22.4079 7.98111 23.0935 8.08028C23.3189 8.11334 23.5818 8.1464 23.8589 8.1464C24.9154 8.1464 25.5258 7.63636 25.7653 6.58323C25.8874 4.17473 25.2817 1.19481 21.6801 0.661157C21.3373 0.609209 20.9992 0.585596 20.6658 0.585596C15.0592 0.585596 12.8288 7.93861 12.8053 8.02833L11.0022 13.3318L10.7627 13.2704C8.02511 12.5903 6.48024 11.1499 6.4145 11.0885C6.11867 10.8052 5.73832 10.6493 5.34389 10.6493C4.98702 10.6493 4.65832 10.7863 4.42354 11.0272C4.17936 11.2822 4.05728 11.6316 4.08075 12.0047C4.10423 12.3872 4.27797 12.7509 4.56441 13.0342C4.64423 13.1098 6.5272 14.9138 9.83764 15.8819L10.11 15.9622L8.73416 20.0094C6.63989 26.2196 5.16545 29.2137 4.12302 30.5643C2.54058 32.6187 1.16005 30.8902 0.958139 30.7627C-0.380125 29.9315 0.0283979 32.0047 0.178659 32.34C0.32892 32.6753 1.61084 35.66 4.52684 34.451C7.92181 33.0484 12.6222 18.4793 12.6222 18.4793L13.3077 16.4628L13.6317 16.477C13.7585 16.4864 13.89 16.4911 14.0215 16.4911C15.3597 16.4911 16.7497 16.3022 18.149 15.9481C17.2098 17.9221 16.4585 20.3022 17.4352 21.6623C17.7874 22.1535 18.4917 22.7344 19.8582 22.7344C20.9711 22.7344 22.0886 22.2054 23.2672 21.1145C23.3518 21.3932 23.4738 21.6387 23.6382 21.8418C24.0937 22.4227 24.8027 22.7344 25.6808 22.7344C28.9161 22.7344 31.217 19.5514 32.4191 17.3554C32.8464 17.719 33.3582 17.9362 33.9405 18.0118C34.0813 18.0307 34.2222 18.0401 34.3584 18.0401C34.5697 18.0401 34.7857 18.0213 35.0064 17.9787C34.4899 19.6175 34.5274 20.8548 35.1097 21.6623C35.429 22.111 36.0441 22.6352 37.1946 22.7202C36.833 23.0319 36.4339 23.32 36.0629 23.66C31.0151 28.2125 24.5632 35.9244 25.8921 38.6919C26.033 38.9846 26.4838 39.6694 27.6577 39.6694C27.977 39.6694 28.3339 39.6127 28.7142 39.4994C29.7332 39.2019 32.8276 38.281 39.1621 26.9846C40.0308 25.4404 40.8854 23.83 41.7071 22.1865C43.2144 20.8973 44.6748 19.7875 45.9896 18.9327C45.7595 20.1039 45.8769 21.0201 46.3417 21.6623C46.6892 22.1535 47.3889 22.7344 48.7694 22.7344C49.8823 22.7344 50.9998 22.2054 52.1737 21.1145C52.2583 21.3932 52.3803 21.634 52.5447 21.8418C53.0002 22.4227 53.7092 22.7344 54.5873 22.7344C57.663 22.7344 59.884 19.9717 61.2692 17.4593C61.4524 18.1251 62.0628 18.3991 62.8799 18.2479C62.8235 18.3943 62.7625 18.5455 62.7061 18.7013C62.2647 19.9197 62.5605 21.0153 63.5138 21.7096C64.1148 22.1488 64.9647 22.3896 65.9086 22.3896C66.4767 22.3896 67.059 22.3046 67.6459 22.144C68.139 22.0071 68.6133 21.8182 69.05 21.5773C69.28 21.9693 69.8013 22.4274 71.0033 22.4982C71.0033 22.4982 75.4924 22.059 75.7601 17.1192C75.7788 16.7509 75.7131 16.4675 75.5441 16.2834C75.422 16.1511 75.2529 16.0803 75.0698 16.0803C74.6425 16.0803 74.1635 16.4675 74.0367 16.9823C73.5954 18.843 72.5858 19.6364 71.9566 19.6364C71.8908 19.6364 71.8251 19.5797 71.7547 19.4664C70.9893 13.1334 79.6434 2.02597 79.7514 1.88902C79.9908 1.58205 80.0613 1.20425 79.9486 0.854782ZM28.9255 36.6187C28.2071 36.2786 33.3441 29.0767 35.8 27.4144C33.8372 31.7497 29.6017 37.1854 28.9255 36.6187ZM69.05 17.8512C69.0312 17.889 69.0124 17.9315 68.9983 17.974C68.6978 18.8288 67.9183 19.5041 66.904 19.7875C66.6129 19.8678 66.3218 19.9103 66.0588 19.9103C65.6268 19.9103 65.4484 19.8017 65.3967 19.7686C65.3686 19.7497 65.2887 19.693 65.4155 19.3436C65.8616 18.111 66.4251 17.1476 67.0825 16.4864L67.1435 16.4298C67.5192 16.0614 67.9277 15.7922 68.355 15.6316C68.6978 15.5041 69.064 15.438 69.4491 15.438C69.5101 15.438 69.5712 15.438 69.6322 15.4427C69.3693 16.3164 69.1767 17.124 69.05 17.8512Z" fill="white"/>
</svg>
